<svg xmlns="http://www.w3.org/2000/svg" viewBox="0 0 256 256">
  <style>
    .st0{fill:#212020;} .st1{fill:#FFFFFF;}
  </style>
  <path d="M0 223c0 18.2 14.8 33 33 33h190c18.2 0 33-14.8 33-33V33c0-18.2-14.8-33-33-33H33C14.8 0 0 14.8 0 33v190z" class="st0"/>
  <path d="M97.2 113.2V77h31.9c3 0 6 .3 8.8.8s5.3 1.4 7.5 2.7c2.2 1.3 3.9 3.1 5.2 5.4 1.3 2.3 2 5.3 2 8.9 0 6.5-2 11.2-5.9 14.1-3.9 2.9-8.9 4.3-15 4.3H97.2zM63.1 50.5v155h75.1c6.9 0 13.7-.9 20.3-2.6 6.6-1.7 12.4-4.4 17.6-8 5.1-3.6 9.2-8.3 12.3-14s4.6-12.5 4.6-20.3c0-9.7-2.4-18-7.1-24.9-4.7-6.9-11.8-11.7-21.4-14.4 6.9-3.3 12.2-7.6 15.7-12.8 3.5-5.2 5.3-11.7 5.3-19.5 0-7.2-1.2-13.3-3.6-18.2-2.4-4.9-5.8-8.9-10.1-11.8-4.3-3-9.6-5.1-15.6-6.4s-12.8-2-20.2-2H63.1v-.1zM97.2 179v-42.5h37.1c7.4 0 13.3 1.7 17.8 5.1 4.5 3.4 6.7 9.1 6.7 17 0 4.1-.7 7.4-2.1 10-1.4 2.6-3.2 4.7-5.5 6.2s-5 2.6-8 3.3-6.2 1-9.6 1H97.2v-.1z" class="st1"/>
</svg>
