<?xml version="1.0" encoding="utf-8"?>
<!-- Generator: Adobe Illustrator 19.0.0, SVG Export Plug-In . SVG Version: 6.00 Build 0)  -->
<svg version="1.1" id="Layer_2" xmlns="http://www.w3.org/2000/svg" xmlns:xlink="http://www.w3.org/1999/xlink" x="0px" y="0px"
	 viewBox="-331 76.4 296 409.6" style="enable-background:new -331 76.4 296 409.6;" xml:space="preserve">
<style type="text/css">
	.st0{fill:#211F1F;}
</style>
<path class="st0" d="M-329,156l26.5,297.1l119.5,33l119.1-34L-37,156H-329z M-89.7,252.1L-171,289h78l-9.2,112.8l-80.8,21.6
	l-80.7-20l-6.9-56.4h37.6l3,27.6l47,10.5l43.4-13.7l2.8-46.4H-272l-3.7-37.6l90.2-38.9l-93.9-0.3L-284,214h197L-89.7,252.1z"/>
<polygon id="XMLID_227_" class="st0" points="-217,94 -217,77 -270,77 -270,132 -217,132 -217,119 -254,119 -254,94 "/>
<polygon id="XMLID_228_" class="st0" points="-156,77 -210,77 -210,111 -173,111 -173,119 -210,119 -210,132 -156,132 -156,100 
	-196,100 -196,93 -156,93 "/>
<polygon id="XMLID_230_" class="st0" points="-96,77 -150,77 -150,111 -113,111 -113,119 -150,119 -150,132 -96,132 -96,100 
	-136,100 -136,93 -96,93 "/>
</svg>
