<?xml version="1.0" encoding="utf-8"?>
<!-- Generator: Adobe Illustrator 19.0.0, SVG Export Plug-In . SVG Version: 6.00 Build 0)  -->
<svg version="1.1" id="Layer_1" xmlns="http://www.w3.org/2000/svg" xmlns:xlink="http://www.w3.org/1999/xlink" x="0px" y="0px"
	 viewBox="-454 256 50 50" style="enable-background:new -454 256 50 50;" xml:space="preserve">
<style type="text/css">
	.st0{fill:#211F1F;}
</style>
<path class="st0" d="M-418,258c-0.4,0-0.9,0-1.3,0.1c-0.1,0-0.2,0-0.3,0.1c-0.3,0-0.6,0.1-0.9,0.2c-0.1,0-0.2,0-0.3,0.1
	c-0.3,0.1-0.6,0.2-0.9,0.3c-0.1,0-0.2,0.1-0.3,0.1c-0.3,0.1-0.6,0.2-0.9,0.4c-0.1,0-0.1,0.1-0.2,0.1c-0.3,0.1-0.6,0.3-0.9,0.5
	c0,0-0.1,0.1-0.2,0.1c-0.3,0.2-0.6,0.4-0.9,0.6c0,0,0,0-0.1,0.1c-0.3,0.2-0.6,0.5-0.9,0.8c0,0,0,0,0,0c-0.3,0.3-0.6,0.6-0.8,0.9
	c-1.9,2.1-3.1,4.9-3.1,8c0,4.1,2.1,7,4.4,10c0.8,1.1,1.7,2.2,2.5,3.5c1.8,2.2,3.4,4.9,4.3,8.4c0.1,0.5,0.1,1,0.4,1.2
	c0.1,0,0.2,0,0.3,0s0.2,0,0.3,0c0.2-0.2,0.2-0.6,0.4-1.2c0.9-3.5,2.6-6.1,4.3-8.4c0.8-1.3,1.7-2.4,2.5-3.5c0.1-0.2,0.3-0.4,0.4-0.6
	c0.2-0.3,0.4-0.6,0.6-0.8c0.1-0.1,0.2-0.3,0.3-0.4c0.2-0.2,0.3-0.4,0.5-0.7c0.1-0.2,0.2-0.3,0.3-0.5c0.1-0.2,0.3-0.4,0.4-0.6
	c0.1-0.2,0.2-0.4,0.3-0.6c0.1-0.2,0.2-0.4,0.3-0.6c0.1-0.2,0.2-0.4,0.3-0.6c0.1-0.2,0.2-0.4,0.3-0.6c0.1-0.2,0.1-0.4,0.2-0.7
	c0.1-0.2,0.1-0.4,0.2-0.6c0.1-0.3,0.1-0.6,0.2-0.9c0-0.2,0.1-0.3,0.1-0.5c0.1-0.5,0.1-1,0.1-1.5C-406,263.4-411.4,258-418,258z
	 M-447.7,262c-2.4,0-4.3,2-4.3,4.3v33.3c0,0.2,0,0.4,0.1,0.7c0.3,2.1,2.1,3.7,4.3,3.7h33.3c0.2,0,0.4,0,0.7-0.1
	c2-0.3,3.5-1.9,3.7-3.9h0v-0.3V293v-10.2c-0.4,0.6-0.8,1.2-1.3,1.8l-0.1,0.1l-0.1,0.1c-2,2.5-3.3,4.9-4,7.6c0,0.1,0,0.2-0.1,0.3
	c-0.1,0.4-0.2,1.1-0.7,1.6l4.1,4.1v1.3c0,1.3-1.1,2.3-2.3,2.3h-1.3l-14.1-14l3.6-3.7l3.6,3.6c-0.6-1-1.3-2.1-2.1-3.1l-0.1-0.1
	l-0.1-0.1c-0.6-0.9-1.2-1.7-1.8-2.5l-19.9,19.9h-1.3c-1.3,0-2.3-1.1-2.3-2.3v-1.3l20.5-20.5c-1.4-2.2-2.5-4.7-2.5-7.9
	c0-3,0.9-5.7,2.5-8H-447.7z M-441.9,266c1.6,0,3,0.6,4.1,1.6l-1.7,1.7c-0.6-0.6-1.5-0.9-2.4-0.9c-2,0-3.7,1.7-3.7,3.7
	s1.7,3.7,3.7,3.7c1.7,0,2.9-1,3.3-2.4h-3.3V271h5.8c0.5,2.4-0.4,7.2-5.8,7.2c-3.4,0-6.1-2.7-6.1-6.1S-445.3,266-441.9,266z
	 M-418,267c1.7,0,3,1.3,3,3s-1.3,3-3,3s-3-1.3-3-3S-419.7,267-418,267z"/>
</svg>
