<?xml version="1.0" encoding="utf-8"?>
<!-- Generator: Adobe Illustrator 19.0.0, SVG Export Plug-In . SVG Version: 6.00 Build 0)  -->
<svg version="1.1" id="Layer_2" xmlns="http://www.w3.org/2000/svg" xmlns:xlink="http://www.w3.org/1999/xlink" x="0px" y="0px"
	 viewBox="-79 -120 800 800" style="enable-background:new -79 -120 800 800;" xml:space="preserve">
<style type="text/css">
	.st0{fill:#211F1F;}
	.st1{fill:#211F1F;stroke:#211F1F;stroke-miterlimit:10;}
</style>
<g>
	<path class="st0" d="M368-118.4c-6.1,26-2.4,58.6,12.1,87.3C399.3,7,476.8,78.3,570.8,30.5c0,0-34.4,68-134.5,38.2
		c-32-9.5-73.6-45-87.7-89.8C330.1-79.7,368-118.4,368-118.4z"/>
	<path class="st0" d="M248.7-90.5c-10.1,43.2-4,97.2,20,145c31.8,63.2,160.5,181.6,316.5,102.3c0,0-57.1,112.9-223.2,63.5
		c-53.1-15.8-122.1-74.7-145.5-149.1C185.8-26.4,248.7-90.5,248.7-90.5z"/>
	<path class="st0" d="M105.6-40.5c-13.3,56.8-5.3,127.8,26.3,190.7C173.7,233.3,343,389,548.2,284.7c0,0-75.1,148.5-293.5,83.5
		c-69.9-20.8-160.6-98.3-191.4-196.1C22.9,43.8,105.6-40.5,105.6-40.5z"/>
</g>
<g>
	<polygon class="st1" points="1.1,498 37.5,498 31.1,528 -5.9,528 	"/>
	<path class="st1" d="M-5.9,537.9h35.3c0,0-24.3,115.4-34.2,128.1c-3.3,4.2-14.5,11.9-22.5,12.3c-4.6,0.2-35.6-1.2-35.6-1.2l6-29.9
		c0,0,7-0.7,17.8-2.4c6.4-1,15.3-24,24.4-75.1C-10.1,544.8-5.9,537.9-5.9,537.9z"/>
	<path class="st1" d="M493.6,497.2l-27.5,128.6h34.8c0,0,19.4-96.2,20.3-97.2c0.9-1,77.9-0.3,77.9-0.3s-0.8-20.2-9.9-27.2
		C580.9,494.6,493.6,497.2,493.6,497.2z"/>
	<path class="st1" d="M338.7,497.9l-26,127.1c0,0-78.4,6.3-90.1-4.7c-9.7-9.1-12.3-18.9-11.7-28.4c0.5-8.1,15.9-94,15.9-94h33.5
		c0,0,1.2,12.9-6.2,38.1c-10.1,34.5-5.6,56.7-5.6,56.7h35.7l21.4-94.7L338.7,497.9L338.7,497.9z"/>
	<path class="st1" d="M563.8,537.6h37l7.3,20.8l55-80.3h41.2c0,0-8.6,14.9-21.3,31.1s-51.7,63.1-62.2,86.4
		c-7.6,16.7-11.7,30.4-11.7,30.4H570c0,0,10.2-16.1,7.4-33.3C574.7,575.3,563.8,537.6,563.8,537.6z"/>
	<path class="st1" d="M458.4,573.3c0,0,7-36.7,5.7-43.8c-1.2-7.1-2.5-23.2-18.9-29.8s-30.6-6.9-46.4-4.1s-33.3,12.5-43.8,27.5
		s-18.9,64.8-17.1,75.4s8.5,19,18.9,24.5c10.4,5.6,88.8,2.9,88.8,2.9l6.6-30.8c0,0-52.3-0.2-64.1-0.9s-13.7-8.5-13.9-12.3
		c-0.2-3.8,1.1-8.6,1.1-8.6H458.4z M395.7,527.8c13.1-6.1,35.7-2.9,31.8,18.2h-45.6C381.9,546,382.6,533.9,395.7,527.8z"/>
	<path class="st1" d="M199,513c-4.5-33-29.3-51-73.1-51s-64.4,33.5-76.6,63.1c-12.3,29.6-11.3,82.7,15.1,94
		c26.4,11.3,124.3,6.1,124.3,6.1l7.7-31.2h-18C178.4,594,203.5,546,199,513z M143.3,593.3c0,0-36.5,2-47.3-2.6
		c-14.3-5.9-15.3-18-13.8-30.5c2-15.9,4-23.5,10-39c4.1-10.7,11.2-26,38.9-25.8c30,0.1,28.9,22.2,29.9,29.6
		C162,532.4,143.3,593.3,143.3,593.3z"/>
</g>
</svg>
