<?xml version="1.0" encoding="utf-8"?>
<!-- Generator: Adobe Illustrator 19.0.0, SVG Export Plug-In . SVG Version: 6.00 Build 0)  -->
<svg version="1.1" id="Layer_1" xmlns="http://www.w3.org/2000/svg" xmlns:xlink="http://www.w3.org/1999/xlink" x="0px" y="0px"
	 viewBox="-467 269 24 24" style="enable-background:new -467 269 24 24;" xml:space="preserve">
<style type="text/css">
	.st0{fill:#211F1F;}
</style>
<path class="st0" d="M-461,271c-0.5,0-1.1,0.2-1.4,0.6c-0.4,0.3-0.6,0.9-0.6,1.4v4c-1.1,0-2,0.9-2,2v5c0,1.1,0.9,2,2,2v3
	c0,0.5,0.2,1.1,0.6,1.4c0.3,0.4,0.9,0.6,1.4,0.6h12c0.5,0,1.1-0.2,1.4-0.6c0.4-0.4,0.6-0.9,0.6-1.4v-3c1.1,0,2-0.9,2-2v-5
	c0-1.1-0.9-2-2-2v-4c0-0.5-0.2-1.1-0.6-1.4c-0.3-0.4-0.9-0.6-1.4-0.6H-461z M-461,273h12v4h-12V273z M-461.3,279h1v3.4v0.7
	c0,0.1,0,0.2-0.1,0.3c-0.1,0.2-0.3,0.3-0.5,0.4c-0.2,0.2-0.5,0.2-0.8,0.2c-0.4,0-0.8-0.1-1-0.3s-0.3-0.5-0.3-0.9v-0.5h0.9v0.6
	c0,0.1,0,0.2,0.1,0.3s0.1,0.1,0.3,0.1c0.1,0,0.2,0,0.3-0.1c0-0.1,0.1-0.2,0.1-0.5v-0.2V279z M-457.7,279c0.5,0,0.9,0.1,1.2,0.4
	c0.3,0.2,0.4,0.6,0.4,1v0.1v0.1h-1v-0.1c0-0.3,0-0.4-0.1-0.6s-0.3-0.2-0.5-0.2s-0.3,0-0.4,0.1s-0.1,0.2-0.1,0.3
	c0,0.2,0.2,0.4,0.6,0.7l0.6,0.3c0.4,0.2,0.7,0.4,0.8,0.7c0.1,0.2,0.2,0.5,0.2,0.8c0,0.4-0.1,0.8-0.4,1s-0.7,0.4-1.2,0.4
	s-1-0.1-1.2-0.4c-0.3-0.2-0.4-0.6-0.4-1.1v-0.3h1v0.3c0,0.3,0,0.5,0.1,0.6s0.2,0.2,0.4,0.2s0.4,0,0.5-0.1c0.1-0.2,0.2-0.3,0.2-0.5
	c0-0.1,0-0.3-0.1-0.4s-0.2-0.2-0.5-0.4l-0.5-0.3c-0.5-0.2-0.8-0.5-0.9-0.6c-0.1-0.2-0.2-0.4-0.2-0.7c0-0.4,0.1-0.7,0.4-0.9
	C-458.5,279.1-458.1,279-457.7,279z M-453.8,279c0.1,0,0.3,0,0.5,0c0.4,0,0.6,0,0.9,0.1c0.2,0.1,0.4,0.2,0.6,0.5
	c0.1,0.2,0.2,0.4,0.3,0.7s-0.1,0.7-0.1,1.2s0,0.9-0.1,1.2s-0.1,0.5-0.3,0.7s-0.3,0.4-0.6,0.5c-0.1,0-0.4,0.1-0.7,0.1
	c-0.4,0-0.6,0-0.9-0.1c-0.2-0.1-0.4-0.2-0.6-0.5c-0.1-0.2-0.2-0.4-0.2-0.7c-0.1-0.3-0.1-0.7-0.1-1.2s0-0.9,0.1-1.2s0.1-0.5,0.3-0.7
	s0.3-0.4,0.6-0.5C-454,279-454,279-453.8,279z M-450.6,279h1.1l1.5,3.5V279h1v5h-1.1l-1.5-3.5v3.5h-1V279z M-453.3,279.7
	c-0.3,0-0.5,0.1-0.6,0.3s-0.2,0.7-0.2,1.5s0.1,1.3,0.2,1.5s0.3,0.3,0.6,0.3s0.5-0.1,0.6-0.3s0.2-0.7,0.2-1.5s-0.1-1.3-0.2-1.5
	C-452.9,279.8-453.1,279.7-453.3,279.7z M-461,286h12v3h-12V286z"/>
</svg>
