<?xml version="1.0" encoding="utf-8"?>
<!-- Generator: Adobe Illustrator 19.0.0, SVG Export Plug-In . SVG Version: 6.00 Build 0)  -->
<svg version="1.1" id="Layer_1" xmlns="http://www.w3.org/2000/svg" xmlns:xlink="http://www.w3.org/1999/xlink" x="0px" y="0px"
	 viewBox="-78 299 256 140" style="enable-background:new -78 299 256 140;" xml:space="preserve">
<style type="text/css">
	.st0{fill:#211F1F;}
</style>
<g>
	<path class="st0" d="M112.3,390.2c-4.8,1.6-10,2.1-15.1,2.9c-1.4,0.2-2.8,0-4.2,0.2c-10.8,1.5-14.8,5.8-16.3,17.2
		c-0.8,6.1-2.4,11.9-5.9,17.1c-5.9,8.8-17.4,12.7-27.2,9.3c-10.5-3.7-16.9-13.3-16-24.1c0.8-9.8,8.5-18.5,19.4-21
		c5.1-1.2,10.4-1.6,15.6-2.1c9.8-0.9,14.1-5.2,15.7-14.8c0.9-5.5,0.1-10.7-1.1-15.9c-1.9-8-7.7-11.7-17.4-12.4
		c-5.3-0.4-10.7-1.2-15.8-2.7c-10.7-3.2-16.9-12.5-16.4-23.4c0.4-9.5,8.2-18.8,17.5-21c11.1-2.5,22.1,1.9,26.8,11.7
		c2.5,5.2,3.8,11,4.8,16.7c1.7,10.2,5.8,14.2,16,15.3c6.6,0.7,13.3,1.5,19.6,3.5c9.5,3,15.3,11.9,15.3,21.7
		C127.4,378.3,121.4,387.2,112.3,390.2z"/>
	<path class="st0" d="M0.1,391.8c-12.8,0-23.2-10.4-23.2-23.2c0-12.8,10.4-23.2,23.2-23.2c12.8,0,23.2,10.4,23.2,23.2
		C23.3,381.3,12.8,391.8,0.1,391.8z"/>
	<path class="st0" d="M-54.9,438.2c-12.8,0-23.2-10.5-23.1-23.3c0-12.8,10.5-23.2,23.3-23.1c12.8,0,23.2,10.5,23.1,23.3
		C-31.6,427.8-42.1,438.2-54.9,438.2z"/>
	<path class="st0" d="M155,438.2c-12.8,0.1-23.3-10.3-23.4-23c-0.1-12.8,10.3-23.3,23-23.4c12.8-0.1,23.3,10.3,23.4,23
		C178.1,427.6,167.7,438.1,155,438.2z"/>
</g>
</svg>
