<?xml version="1.0" encoding="utf-8"?>
<!-- Generator: Adobe Illustrator 19.0.0, SVG Export Plug-In . SVG Version: 6.00 Build 0)  -->
<svg version="1.1" id="Layer_1" xmlns:sketch="http://www.bohemiancoding.com/sketch/ns"
	 xmlns="http://www.w3.org/2000/svg" xmlns:xlink="http://www.w3.org/1999/xlink" x="0px" y="0px" viewBox="75 119 563 500"
	 style="enable-background:new 75 119 563 500;" xml:space="preserve">
<style type="text/css">
	.st0{fill:#211F1F;}
	.st1{fill:none;stroke:#211F1F;stroke-width:24;}
</style>
<circle id="Oval" class="st0" cx="356.5" cy="368.6" r="50.2"/>
<path id="Shape" class="st1" d="M356.5,266.6c67.4,0,129.9,9.7,177.1,25.9c56.8,19.6,91.8,49.2,91.8,76.1c0,28-37,59.5-98.1,79.7
	c-46.2,15.3-106.9,23.3-170.8,23.3c-65.6,0-127.6-7.5-174.3-23.4c-59-20.2-94.6-52.1-94.6-79.6c0-26.6,33.4-56.1,89.4-75.6
	C224.4,276.5,288.5,266.6,356.5,266.6L356.5,266.6L356.5,266.6z"/>
<path id="Shape_1_" class="st1" d="M267.7,317.9c33.6-58.3,73.3-107.7,110.9-140.5c45.4-39.5,88.5-54.9,111.8-41.5
	c24.2,14,33,61.8,20.1,124.8c-9.8,47.6-33.2,104.2-65.2,159.6c-32.7,56.8-70.3,106.8-107.4,139.3c-47,41.1-92.4,55.9-116.2,42.2
	c-23.1-13.3-31.9-56.9-20.8-115.2C210.3,437.3,233.8,376.8,267.7,317.9L267.7,317.9L267.7,317.9z"/>
<path id="Shape_2_" class="st1" d="M267.8,420.5c-33.7-58.3-56.7-117.3-66.3-166.3c-11.5-59-3.4-104.1,19.9-117.6
	c24.2-14,70.1,2.2,118.1,44.9c36.4,32.3,73.7,80.8,105.7,136.2c32.8,56.7,57.5,114.2,67,162.6c12.1,61.2,2.3,108-21.5,121.7
	c-23.1,13.3-65.2-0.8-110.2-39.5C342.6,529.9,301.9,479.3,267.8,420.5L267.8,420.5L267.8,420.5z"/>
</svg>
