<svg xmlns="http://www.w3.org/2000/svg" viewBox="0 0 1937.7 2149.2">
  <style>
    .st0{opacity:0.5;fill:#211F1F;enable-background:new ;} .st1{fill:#211F1F;}
  </style>
  <path d="M1878.1 1656.5l-871 492.7v-383.8l542.7-298.5 328.3 189.6zm59.6-54V572.1l-318.8 184v662.3l318.8 184.1zm-1878.1 54l871 492.7v-383.8l-542.7-298.5-328.3 189.6zm-59.6-54V572.1l318.8 184v662.3L0 1602.5zM37.3 505.4L930.6 0v371L358.3 685.8l-4.4 2.5L37.3 505.4zm1863.1 0L1007.1 0v371l572.3 314.8 4.4 2.5 316.6-182.9z" class="st0"/>
  <path d="M930.6 1695l-535.4-294.4V817.3l535.4 309.2V1695m76.5 0l535.4-294.4V817.3l-535.4 309.2V1695M431.4 749.8l537.5-295.6 537.5 295.6-537.5 310.4-537.5-310.4" class="st1"/>
</svg>
